<svg width="1600" height="760" viewBox="0 0 1600 760" fill="none" xmlns="http://www.w3.org/2000/svg">
  <defs>
    <linearGradient id="bg" x1="0" y1="0" x2="1600" y2="760" gradientUnits="userSpaceOnUse">
      <stop stop-color="#15133A"/>
      <stop offset="1" stop-color="#061B46"/>
    </linearGradient>
    <linearGradient id="card" x1="0" y1="0" x2="0" y2="1">
      <stop stop-color="#1B2748" stop-opacity="0.95"/>
      <stop offset="1" stop-color="#0C1730" stop-opacity="0.95"/>
    </linearGradient>
    <linearGradient id="title" x1="0" y1="0" x2="1" y2="1">
      <stop stop-color="#A7F3D0"/>
      <stop offset="1" stop-color="#67E8F9"/>
    </linearGradient>
    <filter id="shadow" x="-30%" y="-30%" width="160%" height="160%">
      <feDropShadow dx="0" dy="12" stdDeviation="18" flood-color="#020617" flood-opacity="0.4"/>
    </filter>
    <filter id="glowGreen" x="-100%" y="-100%" width="300%" height="300%">
      <feDropShadow dx="0" dy="0" stdDeviation="12" flood-color="#4ADE80" flood-opacity="0.35"/>
    </filter>
    <filter id="glowGold" x="-100%" y="-100%" width="300%" height="300%">
      <feDropShadow dx="0" dy="0" stdDeviation="14" flood-color="#FBBF24" flood-opacity="0.35"/>
    </filter>
  </defs>

  <rect width="1600" height="760" fill="url(#bg)"/>
  <text x="70" y="90" fill="url(#title)" font-family="Segoe UI, Arial, sans-serif" font-size="42" font-weight="700">ZenFlow Oak Stages Preview</text>
  <text x="70" y="130" fill="#94A3B8" font-family="Segoe UI, Arial, sans-serif" font-size="22">Katta bosqichlar qanday ko‘rinishini ko‘rish uchun preview</text>

  <!-- Card helper positions -->
  <!-- 1 -->
  <g transform="translate(60 180)" filter="url(#shadow)">
    <rect width="320" height="250" rx="28" fill="url(#card)" stroke="#334155"/>
    <text x="28" y="44" fill="#E2E8F0" font-family="Segoe UI, Arial, sans-serif" font-size="26" font-weight="700">Yer bosqichi</text>
    <text x="28" y="72" fill="#94A3B8" font-family="Segoe UI, Arial, sans-serif" font-size="16">Level 0-2</text>
    <g transform="translate(160 148)">
      <circle r="72" fill="#103B35" stroke="#2DD4BF" stroke-opacity="0.35"/>
      <ellipse cx="0" cy="37" rx="32" ry="9" fill="#14532D" opacity="0.7"/>
      <ellipse cx="0" cy="31" rx="24" ry="6" fill="#166534" opacity="0.95"/>
      <path d="M0 -8 C-12 -8 -22 3 -22 18 C-22 32 -12 42 0 42 C12 42 22 32 22 18 C22 3 12 -8 0 -8 Z" fill="#92400E"/>
      <path d="M0 -8 C7 -8 14 -3 16 8 C8 10 1 5 0 -8 Z" fill="#D97706"/>
      <path d="M0 -2 C-7 -2 -13 4 -13 14 C-13 22 -7 28 0 28 C7 28 13 22 13 14 C13 4 7 -2 0 -2 Z" fill="#B45309"/>
    </g>
  </g>

  <!-- 2 -->
  <g transform="translate(440 180)" filter="url(#shadow)">
    <rect width="320" height="250" rx="28" fill="url(#card)" stroke="#334155"/>
    <text x="28" y="44" fill="#E2E8F0" font-family="Segoe UI, Arial, sans-serif" font-size="26" font-weight="700">Urug‘</text>
    <text x="28" y="72" fill="#94A3B8" font-family="Segoe UI, Arial, sans-serif" font-size="16">Level 3-4</text>
    <g transform="translate(160 146)">
      <circle r="72" fill="#103B35" stroke="#2DD4BF" stroke-opacity="0.35"/>
      <ellipse cx="0" cy="38" rx="33" ry="8" fill="#6B4423"/>
      <rect x="-8" y="0" width="16" height="34" rx="4" fill="#8B5A2B"/>
      <path d="M0 2 C-10 -10 -24 -8 -28 6 C-18 9 -8 9 0 2 Z" fill="#4ADE80"/>
      <path d="M0 2 C10 -10 24 -8 28 6 C18 9 8 9 0 2 Z" fill="#22C55E"/>
    </g>
  </g>

  <!-- 3 -->
  <g transform="translate(820 180)" filter="url(#shadow)">
    <rect width="320" height="250" rx="28" fill="url(#card)" stroke="#334155"/>
    <text x="28" y="44" fill="#E2E8F0" font-family="Segoe UI, Arial, sans-serif" font-size="26" font-weight="700">Nihol</text>
    <text x="28" y="72" fill="#94A3B8" font-family="Segoe UI, Arial, sans-serif" font-size="16">Level 5-7</text>
    <g transform="translate(160 142)">
      <circle r="72" fill="#103B35" stroke="#2DD4BF" stroke-opacity="0.35"/>
      <ellipse cx="0" cy="40" rx="32" ry="8" fill="#14532D" opacity="0.65"/>
      <rect x="-7" y="4" width="14" height="32" rx="4" fill="#8B5A2B"/>
      <path d="M0 -6 C-16 -17 -29 -11 -30 6 C-16 7 -5 5 0 -6 Z" fill="#34D399"/>
      <path d="M0 -6 C16 -17 29 -11 30 6 C16 7 5 5 0 -6 Z" fill="#22C55E"/>
      <circle cx="-10" cy="-6" r="8" fill="#4ADE80"/>
      <circle cx="10" cy="-6" r="8" fill="#22C55E"/>
    </g>
  </g>

  <!-- 4 -->
  <g transform="translate(1200 180)" filter="url(#shadow)">
    <rect width="320" height="250" rx="28" fill="url(#card)" stroke="#334155"/>
    <text x="28" y="44" fill="#E2E8F0" font-family="Segoe UI, Arial, sans-serif" font-size="26" font-weight="700">Ko‘chat</text>
    <text x="28" y="72" fill="#94A3B8" font-family="Segoe UI, Arial, sans-serif" font-size="16">Level 8-12</text>
    <g transform="translate(160 142)">
      <circle r="72" fill="#103B35" stroke="#2DD4BF" stroke-opacity="0.35"/>
      <ellipse cx="0" cy="40" rx="32" ry="8" fill="#14532D" opacity="0.65"/>
      <rect x="-8" y="-6" width="16" height="42" rx="4" fill="#8B5A2B"/>
      <path d="M0 -14 C-20 -26 -34 -20 -36 -1 C-18 1 -5 -1 0 -14 Z" fill="#22C55E"/>
      <path d="M0 -17 C20 -29 34 -20 36 -1 C18 1 5 -3 0 -17 Z" fill="#16A34A"/>
      <circle cx="0" cy="-24" r="13" fill="#4ADE80"/>
      <circle cx="-16" cy="-14" r="12" fill="#22C55E"/>
      <circle cx="16" cy="-14" r="12" fill="#22C55E"/>
    </g>
  </g>

  <!-- 5 -->
  <g transform="translate(250 470)" filter="url(#shadow)">
    <rect width="360" height="250" rx="28" fill="url(#card)" stroke="#334155"/>
    <text x="28" y="44" fill="#E2E8F0" font-family="Segoe UI, Arial, sans-serif" font-size="26" font-weight="700">Yosh eman</text>
    <text x="28" y="72" fill="#94A3B8" font-family="Segoe UI, Arial, sans-serif" font-size="16">Level 13-20</text>
    <g transform="translate(180 142)">
      <circle r="78" fill="#103B35" stroke="#2DD4BF" stroke-opacity="0.35"/>
      <ellipse cx="0" cy="42" rx="34" ry="8" fill="#14532D" opacity="0.65"/>
      <rect x="-8" y="-12" width="16" height="48" rx="4" fill="#7A4B26"/>
      <path d="M0 16 C-12 6 -21 1 -28 -8" stroke="#7A4B26" stroke-width="4" fill="none"/>
      <path d="M0 12 C10 3 18 -1 26 -10" stroke="#7A4B26" stroke-width="4" fill="none"/>
      <g filter="url(#glowGreen)">
        <circle cx="0" cy="-6" r="24" fill="#16A34A"/>
        <circle cx="-18" cy="-2" r="16" fill="#22C55E"/>
        <circle cx="18" cy="-2" r="16" fill="#22C55E"/>
        <circle cx="0" cy="-22" r="14" fill="#4ADE80"/>
      </g>
    </g>
  </g>

  <!-- 6 -->
  <g transform="translate(650 470)" filter="url(#shadow)">
    <rect width="360" height="250" rx="28" fill="url(#card)" stroke="#334155"/>
    <text x="28" y="44" fill="#E2E8F0" font-family="Segoe UI, Arial, sans-serif" font-size="26" font-weight="700">Baquvvat eman</text>
    <text x="28" y="72" fill="#94A3B8" font-family="Segoe UI, Arial, sans-serif" font-size="16">Level 21-35</text>
    <g transform="translate(180 140)">
      <circle r="78" fill="#103B35" stroke="#2DD4BF" stroke-opacity="0.35"/>
      <ellipse cx="0" cy="44" rx="36" ry="9" fill="#14532D" opacity="0.65"/>
      <rect x="-9" y="-18" width="18" height="56" rx="4" fill="#7A4B26"/>
      <path d="M0 10 C-17 -2 -28 -8 -37 -18" stroke="#7A4B26" stroke-width="4" fill="none"/>
      <path d="M0 6 C14 -4 27 -10 37 -22" stroke="#7A4B26" stroke-width="4" fill="none"/>
      <g filter="url(#glowGreen)">
        <circle cx="0" cy="-6" r="28" fill="#16A34A"/>
        <circle cx="-24" cy="-2" r="18" fill="#22C55E"/>
        <circle cx="24" cy="-2" r="18" fill="#22C55E"/>
        <circle cx="0" cy="-28" r="16" fill="#4ADE80"/>
      </g>
      <circle cx="-34" cy="-18" r="3" fill="#BBF7D0"/>
      <circle cx="36" cy="-22" r="3" fill="#BBF7D0"/>
    </g>
  </g>

  <!-- 7 -->
  <g transform="translate(1050 470)" filter="url(#shadow)">
    <rect width="360" height="250" rx="28" fill="url(#card)" stroke="#334155"/>
    <text x="28" y="44" fill="#E2E8F0" font-family="Segoe UI, Arial, sans-serif" font-size="26" font-weight="700">Katta / afsonaviy yo‘nalish</text>
    <text x="28" y="72" fill="#94A3B8" font-family="Segoe UI, Arial, sans-serif" font-size="16">Level 36+</text>
    <g transform="translate(180 138)">
      <circle r="82" fill="#103B35" stroke="#FBBF24" stroke-opacity="0.45"/>
      <ellipse cx="0" cy="48" rx="40" ry="10" fill="#14532D" opacity="0.65"/>
      <rect x="-10" y="-22" width="20" height="64" rx="5" fill="#7A4B26"/>
      <path d="M0 12 C-20 0 -32 -8 -44 -22" stroke="#7A4B26" stroke-width="4.5" fill="none"/>
      <path d="M0 8 C18 -4 31 -12 44 -26" stroke="#7A4B26" stroke-width="4.5" fill="none"/>
      <g filter="url(#glowGold)">
        <circle cx="0" cy="-8" r="32" fill="#16A34A"/>
        <circle cx="-26" cy="-2" r="22" fill="#22C55E"/>
        <circle cx="26" cy="-2" r="22" fill="#22C55E"/>
        <circle cx="0" cy="-34" r="18" fill="#86EFAC"/>
      </g>
      <circle cx="-42" cy="-18" r="3.4" fill="#BBF7D0"/>
      <circle cx="45" cy="-25" r="3.4" fill="#BBF7D0"/>
      <circle cx="10" cy="-42" r="3.4" fill="#BBF7D0"/>
    </g>
  </g>
</svg>
